<svg width="77" height="53" viewBox="0 0 77 53" fill="none" xmlns="http://www.w3.org/2000/svg">
<circle cx="26.5" cy="26.5" r="26.5" fill="#EC6A00"/>
<path d="M12.3328 29.3125L15.4109 31.75L13.9344 33.0312L10.9031 30.5938L12.3328 29.3125ZM15.4891 25.0469V25.5859C15.4891 26.4505 15.3719 27.2266 15.1375 27.9141C14.9083 28.6016 14.5776 29.1875 14.1453 29.6719C13.713 30.151 13.2026 30.5182 12.6141 30.7734C12.0255 31.0286 11.3719 31.1562 10.6531 31.1562C9.93958 31.1562 9.28594 31.0286 8.69219 30.7734C8.09844 30.5182 7.58542 30.151 7.15313 29.6719C6.72083 29.1875 6.3849 28.6016 6.14531 27.9141C5.91094 27.2266 5.79375 26.4505 5.79375 25.5859V25.0469C5.79375 24.1771 5.91094 23.401 6.14531 22.7188C6.3849 22.0312 6.71823 21.4453 7.14531 20.9609C7.5724 20.4766 8.08281 20.1068 8.67656 19.8516C9.27031 19.5964 9.92396 19.4688 10.6375 19.4688C11.3563 19.4688 12.0099 19.5964 12.5984 19.8516C13.1922 20.1068 13.7052 20.4766 14.1375 20.9609C14.5698 21.4453 14.9031 22.0312 15.1375 22.7188C15.3719 23.401 15.4891 24.1771 15.4891 25.0469ZM13.1219 25.5859V25.0312C13.1219 24.4271 13.0646 23.8958 12.95 23.4375C12.8406 22.9792 12.6792 22.5938 12.4656 22.2812C12.2573 21.9688 11.9995 21.7344 11.6922 21.5781C11.3849 21.4167 11.0333 21.3359 10.6375 21.3359C10.2417 21.3359 9.8901 21.4167 9.58281 21.5781C9.27552 21.7344 9.01771 21.9688 8.80938 22.2812C8.60104 22.5938 8.44219 22.9792 8.33281 23.4375C8.22344 23.8958 8.16875 24.4271 8.16875 25.0312V25.5859C8.16875 26.1849 8.22344 26.7161 8.33281 27.1797C8.44219 27.638 8.60104 28.026 8.80938 28.3438C9.02292 28.6562 9.28333 28.8932 9.59063 29.0547C9.90313 29.2161 10.2573 29.2969 10.6531 29.2969C11.049 29.2969 11.3979 29.2161 11.7 29.0547C12.0073 28.8932 12.2651 28.6562 12.4734 28.3438C12.687 28.026 12.8484 27.638 12.9578 27.1797C13.0672 26.7161 13.1219 26.1849 13.1219 25.5859ZM22.1938 28.9766V22.5469H24.4438V31H22.3266L22.1938 28.9766ZM22.4438 27.2422L23.1078 27.2266C23.1078 27.7891 23.0427 28.3125 22.9125 28.7969C22.7823 29.276 22.587 29.6927 22.3266 30.0469C22.0661 30.3958 21.738 30.6693 21.3422 30.8672C20.9464 31.0599 20.4802 31.1562 19.9438 31.1562C19.5323 31.1562 19.1521 31.099 18.8031 30.9844C18.4594 30.8646 18.1625 30.6797 17.9125 30.4297C17.6677 30.1745 17.475 29.849 17.3344 29.4531C17.199 29.0521 17.1313 28.5703 17.1313 28.0078V22.5469H19.3813V28.0234C19.3813 28.2734 19.4099 28.4844 19.4672 28.6562C19.5297 28.8281 19.6156 28.9688 19.725 29.0781C19.8344 29.1875 19.962 29.2656 20.1078 29.3125C20.2589 29.3594 20.4255 29.3828 20.6078 29.3828C21.0714 29.3828 21.4359 29.2891 21.7016 29.1016C21.9724 28.9141 22.1625 28.6589 22.2719 28.3359C22.3865 28.0078 22.4438 27.6432 22.4438 27.2422ZM28.6875 22.5469V31H26.4297V22.5469H28.6875ZM26.2891 20.3438C26.2891 20.0156 26.4036 19.7448 26.6328 19.5312C26.862 19.3177 27.1693 19.2109 27.5547 19.2109C27.9349 19.2109 28.2396 19.3177 28.4688 19.5312C28.7031 19.7448 28.8203 20.0156 28.8203 20.3438C28.8203 20.6719 28.7031 20.9427 28.4688 21.1562C28.2396 21.3698 27.9349 21.4766 27.5547 21.4766C27.1693 21.4766 26.862 21.3698 26.6328 21.1562C26.4036 20.9427 26.2891 20.6719 26.2891 20.3438ZM34.1891 29.3984C34.4651 29.3984 34.7099 29.3464 34.9234 29.2422C35.137 29.1328 35.3036 28.9818 35.4234 28.7891C35.5484 28.5911 35.6135 28.3594 35.6188 28.0938H37.7359C37.7307 28.6875 37.5719 29.2161 37.2594 29.6797C36.9469 30.138 36.5276 30.5 36.0016 30.7656C35.4755 31.026 34.887 31.1562 34.2359 31.1562C33.5797 31.1562 33.0068 31.0469 32.5172 30.8281C32.0328 30.6094 31.6292 30.3073 31.3063 29.9219C30.9833 29.5312 30.7411 29.0781 30.5797 28.5625C30.4182 28.0417 30.3375 27.4844 30.3375 26.8906V26.6641C30.3375 26.0651 30.4182 25.5078 30.5797 24.9922C30.7411 24.4714 30.9833 24.0182 31.3063 23.6328C31.6292 23.2422 32.0328 22.9375 32.5172 22.7188C33.0016 22.5 33.5693 22.3906 34.2203 22.3906C34.913 22.3906 35.5198 22.5234 36.0406 22.7891C36.5667 23.0547 36.9781 23.4349 37.275 23.9297C37.5771 24.4193 37.7307 25 37.7359 25.6719H35.6188C35.6135 25.3906 35.5536 25.1354 35.4391 24.9062C35.3297 24.6771 35.1682 24.4948 34.9547 24.3594C34.7464 24.2188 34.4885 24.1484 34.1813 24.1484C33.8531 24.1484 33.5849 24.2188 33.3766 24.3594C33.1682 24.4948 33.0068 24.6823 32.8922 24.9219C32.7776 25.1562 32.6969 25.4245 32.65 25.7266C32.6083 26.0234 32.5875 26.3359 32.5875 26.6641V26.8906C32.5875 27.2188 32.6083 27.5339 32.65 27.8359C32.6917 28.138 32.7698 28.4062 32.8844 28.6406C33.0042 28.875 33.1682 29.0599 33.3766 29.1953C33.5849 29.3307 33.8557 29.3984 34.1891 29.3984ZM41.4406 18.9922V31H39.1906V18.9922H41.4406ZM46.7687 22.5469L43.0969 26.7344L41.1281 28.7266L40.3078 27.1016L41.8703 25.1172L44.0656 22.5469H46.7687ZM44.4328 31L41.9328 27.0938L43.4875 25.7344L47.0266 31H44.4328Z" fill="white"/>
<path d="M59.7125 19V31H57.4547V19H59.7125ZM64.0969 22.5469V31H61.8391V22.5469H64.0969ZM61.6984 20.3438C61.6984 20.0156 61.813 19.7448 62.0422 19.5312C62.2714 19.3177 62.5786 19.2109 62.9641 19.2109C63.3443 19.2109 63.649 19.3177 63.8781 19.5312C64.1125 19.7448 64.2297 20.0156 64.2297 20.3438C64.2297 20.6719 64.1125 20.9427 63.8781 21.1562C63.649 21.3698 63.3443 21.4766 62.9641 21.4766C62.5786 21.4766 62.2714 21.3698 62.0422 21.1562C61.813 20.9427 61.6984 20.6719 61.6984 20.3438ZM68.9734 31H66.7078V21.7969C66.7078 21.1562 66.8328 20.6172 67.0828 20.1797C67.338 19.737 67.6948 19.4036 68.1531 19.1797C68.6167 18.9505 69.1661 18.8359 69.8016 18.8359C70.0099 18.8359 70.2104 18.8516 70.4031 18.8828C70.5958 18.9089 70.7833 18.9427 70.9656 18.9844L70.9422 20.6797C70.8432 20.6536 70.7391 20.6354 70.6297 20.625C70.5203 20.6146 70.3927 20.6094 70.2469 20.6094C69.976 20.6094 69.7443 20.6562 69.5516 20.75C69.3641 20.8385 69.2208 20.9714 69.1219 21.1484C69.0229 21.3255 68.9734 21.5417 68.9734 21.7969V31ZM70.6609 22.5469V24.1406H65.45V22.5469H70.6609ZM76.1312 22.5469V24.1406H71.2094V22.5469H76.1312ZM72.4281 20.4609H74.6781V28.4531C74.6781 28.6979 74.7094 28.8854 74.7719 29.0156C74.8396 29.1458 74.9385 29.237 75.0687 29.2891C75.199 29.3359 75.363 29.3594 75.5609 29.3594C75.7016 29.3594 75.8266 29.3542 75.9359 29.3438C76.0505 29.3281 76.1469 29.3125 76.225 29.2969L76.2328 30.9531C76.0401 31.0156 75.8318 31.0651 75.6078 31.1016C75.3839 31.138 75.1365 31.1562 74.8656 31.1562C74.3708 31.1562 73.9385 31.0755 73.5687 30.9141C73.2042 30.7474 72.9229 30.4818 72.725 30.1172C72.5271 29.7526 72.4281 29.2734 72.4281 28.6797V20.4609Z" fill="#EC6A00"/>
</svg>
