<?xml version="1.0" encoding="UTF-8" standalone="no"?><!DOCTYPE svg PUBLIC "-//W3C//DTD SVG 1.1//EN" "http://www.w3.org/Graphics/SVG/1.1/DTD/svg11.dtd"><svg width="100%" height="100%" viewBox="0 0 18142 19013" version="1.1" xmlns="http://www.w3.org/2000/svg" xmlns:xlink="http://www.w3.org/1999/xlink" xml:space="preserve" xmlns:serif="http://www.serif.com/" style="fill-rule:evenodd;clip-rule:evenodd;stroke-linejoin:round;stroke-miterlimit:2;"><g><path d="M9234.83,9324.17c-60.293,3.125 -112.75,4.749 -165.001,9.083c-24.458,2.042 -49,7.667 -72.499,14.875c-23.709,7.25 -33.5,27 -30.126,51.666c4.126,29.626 16.25,42.459 50.709,43.168c118.625,2.416 237.291,3.582 355.958,4.125c31.375,0.125 39.792,-9.001 41.209,-38.542c0.75,-16.458 0.124,-33.125 -1.667,-49.501c-2.667,-24.624 -11.834,-33.958 -37.5,-34.541c-49.625,-1.125 -99.292,-0.333 -141.083,-0.333Zm349.249,40.541c1,-0.083 9.333,-0.5 17.583,-1.458c135.084,-15.625 269.668,-34.459 402.417,-64.292c189.917,-42.625 374.501,-101.708 552.334,-181.208c35.416,-15.875 70.791,-32.125 100.499,-58c10.626,-9.291 24.334,-21.958 18.209,-34.416c-7.583,-15.376 -23.791,-6.167 -36.125,-0.167c-12.5,6.041 -24.709,12.625 -37.334,18.374c-291.916,133.834 -594.833,228.668 -916.041,259.209c-35.834,3.375 -71.459,9.75 -107.041,15.5c-7.959,1.291 -16.792,4.042 -22.584,9.084c-5.459,4.749 -9.042,13.124 -10.459,20.499c-1.958,10.083 7.167,14.001 14.709,16.542c4.958,1.709 10.959,0.333 23.833,0.333Zm-1907.42,-160.208c-4.209,11.916 1,20.917 7.541,30.084c46.667,65.875 110.959,107.166 185.875,133.749c57.751,20.501 117.75,30.667 178.042,40.334c112.125,18.041 95.916,11.708 97.042,-88.167c0.083,-5.541 -0.459,-11.083 -1.042,-16.584c-1.25,-12.083 -7.5,-20.708 -19.416,-23.499c-16.167,-3.709 -32.501,-7.667 -48.959,-9.167c-119.042,-10.875 -235.625,-34.667 -350.875,-65.75c-15.709,-4.25 -32.125,-9.875 -48.208,-1Zm826.125,105.958c-0,-0.708 0.042,-1.375 0.042,-2.041c-85.584,-6.709 -171.126,-13.667 -256.75,-20c-22.376,-1.625 -32.709,6.291 -33.584,26.417c-1.25,27.624 -0.833,55.375 -0.25,83.041c0.333,16.291 10.958,24.583 26.083,26.417c19.209,2.333 38.542,4.416 57.875,4.916c144.042,3.667 288.042,6.958 432.042,10.167c13.834,0.292 27.708,-0.042 41.458,-1.209c15.959,-1.332 24.625,-11.291 25.584,-26.833c1.208,-19.333 1.541,-38.708 1.666,-58.083c0.167,-19.084 -8.5,-31.625 -28.542,-33.292c-16.541,-1.375 -33.124,-1.874 -49.749,-2.416c-71.959,-2.417 -143.917,-4.75 -215.875,-7.084Zm1998.5,141.459c-16.251,56.333 -21.084,113.541 -23.708,171.375c-5.876,127.458 -11.376,255 -20.626,382.25c-5.416,74.583 -19.5,148.5 -26.249,223c-3.209,35.666 -19.792,54.125 -51.501,66.874c-128.791,51.751 -261.416,91.75 -394.458,130.459c-19.875,5.792 -31.875,-3.209 -33.167,-23.917c-1.042,-16.583 -0.5,-33.25 -0.333,-49.875c1.125,-127.624 3.708,-255.291 2.958,-382.916c-0.5,-85.959 -5.458,-171.917 -8.958,-257.834c-0.667,-16.541 -3.166,-33.125 -6.25,-49.416c-1.458,-7.75 -5.542,-15.167 -15.083,-17.334c-13.667,-3.167 -11.917,8.709 -13.167,14.792c-2.166,10.75 -1.958,22.084 -1.958,33.125c-0.208,241.458 -0.292,482.875 -0.375,724.292c-0,8.333 0.292,16.666 1,24.958c1.791,20.583 11.875,27.791 33.667,23.125c13.541,-2.875 26.833,-7 40.041,-11.084c95.292,-29.457 190.541,-59.083 285.834,-88.541c55.582,-17.167 111.208,-34.292 166.916,-51.042c23.834,-7.167 38.125,-21.333 38.75,-47.291c0.208,-8.292 1.375,-16.583 2.041,-24.875c15.084,-188.042 31.167,-375.958 44.75,-564.084c4.375,-60.75 2.751,-122 2.793,-183c0.041,-16.167 -0.334,-34.041 -22.917,-43.041Zm1362.25,6302.67c8.625,53.709 16.708,104.959 25.166,156.167c2.542,15.375 12.459,22.792 27.667,26.042c32.458,6.916 65.334,12.958 96.75,23.208c150.542,49.125 266.334,143.417 353.792,274.417c47.917,71.75 35.749,68.875 116.667,35.666c7.707,-3.166 15.75,-5.375 23.374,-8.625c44.792,-19.166 51.417,-31.666 37.542,-75.583c-4.958,-15.708 -11.542,-31.333 -19.959,-45.417c-120.75,-202.75 -292.541,-336.625 -525.875,-385.416c-42.708,-8.917 -86.832,-14.167 -135.124,-0.459Zm-5355.04,-31.291c2.25,-47.334 -11,-58.625 -40.875,-51.125c-298.666,75.083 -530.708,243.083 -697.375,501.75c-18.292,28.375 -29.167,59.5 -35.166,92.583c-2.584,14.333 -1.418,28.208 7.666,39.5c21.75,27.083 50.667,43.125 85.166,45.375c27.042,1.792 34.793,-23.833 48.292,-40.458c7,-8.584 12.959,-18 19.625,-26.834c131.792,-174.583 298.292,-303.416 503.334,-381.25c15.541,-5.875 31.166,-11.666 46.875,-17.083c13.875,-4.75 24.875,-12.75 28.583,-27.375c13.042,-50.875 25.584,-101.875 33.875,-135.083Zm1567.04,-13161.7c12.583,4.196 22.625,8.721 33.166,10.854c65.084,13.205 130.375,25.363 195.459,38.8c244.328,50.463 489.708,93.446 739.958,98.884c121.834,2.65 243.75,2.895 365.625,3.05c31.792,0.042 39.916,-9.446 37.875,-39.937c-2.167,-33.126 -5.209,-66.33 -10.584,-99.068c-5.708,-35.007 -12.041,-38.891 -50.458,-39.012c-22.166,-0.07 -44.333,0.979 -66.499,1.483c-210.542,4.796 -420.917,6.371 -630.751,-18.188c-165.708,-19.4 -327.583,-53.654 -483.5,-114.003c-15.458,-5.996 -30.833,-12.292 -46.5,-17.776c-11.583,-4.045 -24.5,-1.475 -28.583,9.28c-20.417,53.658 -46.542,105.621 -55.208,165.633Zm-2.792,7849.99c21,-40.458 21.083,-76.792 21.417,-112.542c1.166,-121.875 1.875,-243.75 1.5,-365.625c-0.25,-85.875 -2.126,-171.792 -4.251,-257.625c-1,-38.542 -6.541,-46.542 -38.624,-52.792c-89.125,-17.291 -178.501,-33.208 -266.667,-49.458c-14.417,18.875 -12.75,39.083 -13.75,58c-9.666,182.542 -16.916,365.208 -28.834,547.583c-3.583,54.459 17.209,88.001 59.834,116.792c81.5,55.125 171.416,89 269.375,115.667Zm634,-307.459l0.667,0c-0,-119.167 0.537,-238.291 -0.292,-357.417c-0.296,-36.583 -7.25,-44.166 -44.625,-44.207c-91.708,-0.084 -182.333,-12.043 -273.208,-21.543c-45.959,-4.833 -46.084,-4.041 -48.876,41.625c-0.666,11.043 -1.208,22.126 -1.291,33.209c-1.667,216.125 -3.292,432.209 -4.833,648.333c-0.084,11.083 0.541,22.167 0.916,33.208c0.625,19.251 10.459,30.709 29.375,34.25c40.75,7.626 81.25,18.001 122.417,22.084c60.537,6.042 121.5,8.375 182.329,10.542c25.629,0.916 34.671,-9.25 36.583,-34.334c1.042,-13.792 0.797,-27.708 0.797,-41.541c0.041,-108.083 0.041,-216.126 0.041,-324.209Zm704.416,4.584l-1.833,-0c0,-102.542 0.042,-205.083 -0.041,-307.667c-0.042,-19.375 0.166,-38.834 -0.959,-58.167c-1.833,-30.999 -8.5,-38.541 -41,-39.083c-91.458,-1.542 -182.916,-1.708 -274.416,-2.333c-5.5,-0.042 -11.084,0.166 -16.583,0.917c-15.334,2.125 -25.543,10.458 -26.709,26.332c-1.375,19.334 -1.917,38.75 -1.917,58.084c-0.374,216.208 -0.541,432.417 -0.75,648.583c-0.041,13.876 -0.333,27.75 0.292,41.584c1.792,39.541 8.209,46.916 50.5,47.416c88.708,1 177.417,0.292 266.084,0.25c2.791,0 5.541,-0.208 8.291,-0.416c30.625,-2.625 37.167,-9.209 38.625,-41.334c0.875,-19.333 0.416,-38.791 0.416,-58.167c0.042,-105.333 0,-210.666 0,-315.999Zm4829.29,1063.96c2.125,-9.875 4.834,-20.042 6.375,-30.333c7,-46.625 11.459,-93.709 20.875,-139.792c17.875,-87.417 47.292,-170.875 94.542,-247.208c11.416,-18.459 13.625,-33.834 -3.458,-51.376c-120.626,-124.416 -253.292,-232.832 -411.75,-305.791c-261.876,-120.625 -529.5,-128.375 -801.542,-36.75c-65.916,22.209 -130.416,46.958 -188.333,86.25c-78.251,53.125 -92.125,84 -70.458,175c14.124,59.125 32.999,117.209 51.208,175.333c27.458,87.5 50.5,176.042 56.042,267.834c6.707,111.624 11.916,95.625 95.624,48.666c150.042,-84.208 310.834,-132.125 482.792,-139.375c114.25,-4.833 226.75,5.334 336.209,42.667c94.958,32.417 185.541,72.958 270.499,126.333c18.209,11.458 33.667,29.667 61.375,28.542Zm-1638.96,-523.583c0.75,-259.792 -13.5,-506.5 -43.375,-752.042c-35.25,-289.583 -90.125,-575.584 -163.083,-858.125c-147.417,-570.625 -367.792,-1110.58 -673.042,-1615.62c-179.958,-297.75 -388.042,-575.375 -598.875,-851.208c-18.5,-24.209 -38.875,-47.167 -59.625,-69.542c-22.292,-24.041 -41.708,-51.75 -74.417,-63.75c-26.958,27.416 -10.208,61.833 -14.417,92.834c-2.208,16.374 -0.624,33.25 -0.624,49.916c0.666,727.792 -3.917,1455.5 -28.875,2182.96c-2.751,80.709 -10.542,160.792 -20.833,240.542c-15.792,122.791 -47.251,240.167 -140.042,330.875c-16.959,16.584 -22.792,36.125 -23.583,59.75c-5.042,149.875 -11.792,299.667 -16.792,449.542c-3.209,96.917 -9.167,75.458 66.666,124.583c344.75,223.334 653.167,488.875 926.708,795.208c267.709,299.75 492.834,629.125 684.25,982c10.584,19.458 21.292,38.917 32.501,58c4.333,7.375 12,11.709 20.375,8.75c4.583,-1.625 9.417,-6.749 11.208,-11.416c22.291,-57.375 31.083,-118.126 40.125,-178.25c49.208,-327.209 77.5,-656.167 75.75,-975Zm-5292.17,-2978.21c0,-22.75 0.459,-67.167 -0.083,-111.583c-2.625,-219.333 -9.417,-438.542 -4.417,-658.042c2.834,-124.749 -5.042,-249.749 -8.583,-374.625c-0.458,-16.5 -2.542,-33.208 -6.208,-49.291c-2,-8.709 -11.667,-12.542 -19.625,-7c-8.875,6.208 -16.709,14.292 -23.751,22.625c-294.041,348.541 -570.083,710.083 -797.999,1106.21c-514.334,893.834 -780.208,1857.25 -805.792,2887.38c-4.167,169.292 -5.208,338.917 7.667,507.917c11.833,154.958 27.041,309.708 44.541,464.083c15.334,135.083 36.458,269.416 64.459,402.583c1.708,8.042 3.416,16.417 7.166,23.583c1.042,2.043 11.834,2.501 13.5,0.251c8.042,-10.959 15.667,-22.5 21.292,-34.834c253.625,-554.125 602.708,-1040.88 1034.54,-1469.62c155.958,-154.834 318.041,-301.917 503.375,-421.834c46.416,-30.041 88.75,-66.625 131.875,-101.542c30.333,-24.541 56.083,-53.791 75.833,-87.792c8.416,-14.458 15.542,-29.083 14.666,-46.833c-0.583,-11.624 -11.458,-20.833 -21.791,-15c-24.125,13.626 -48.666,26.875 -71.292,42.751c-52.333,36.583 -103.583,74.666 -155.291,112.124c-378.292,273.875 -708.625,596.875 -992.542,967.584c-174.375,227.666 -322.833,471.625 -459.125,723.375c-11.875,21.958 -24.125,43.708 -37.125,65c-1.917,3.166 -9.75,5.25 -13.583,3.958c-4.375,-1.417 -8.292,-6.667 -10.625,-11.208c-2.459,-4.75 -3.167,-10.542 -4.042,-16c-35.208,-216.708 -57.792,-434.834 -65.542,-654.126c-10.083,-285.999 -3.417,-571.625 27.709,-856.666c30.166,-276.334 77.458,-549.334 144.625,-818.875c162.375,-651.583 425.5,-1260.38 781.833,-1829c135.75,-216.583 282.25,-425.75 444.875,-623.25c17.542,-21.292 36.708,-41.375 56.417,-60.708c6.667,-6.542 17.375,-2.083 19.208,6.375c2.958,13.375 2.833,27.5 2.917,41.333c0.458,83.292 0.208,166.583 0.833,249.917c2.417,316.541 0.916,633.083 11.708,949.541c8.834,258.084 15.667,516.209 21.667,774.334c2.042,88.958 7.042,177.542 18.292,265.708c8.458,66.25 22.583,131.125 47.208,193.542c39.167,99.125 104.958,175.708 195.958,230.291c12.209,7.292 29.459,23.376 44,6.5c9.625,-11.166 -0.75,-26.708 -7.208,-38.208c-14.958,-26.542 -31.083,-52.5 -48.042,-77.875c-23.125,-34.625 -47.208,-68.625 -71.291,-102.583c-32.709,-46.125 -52.501,-96.875 -61.125,-153c-16.5,-107.126 -29.5,-214.542 -31.501,-322.958c-6.75,-360.959 -12.874,-721.875 -19.583,-1104.5Zm2805.88,-3255.96c-2.333,-49.791 -1.625,-99.667 -10.624,-149.25c-36.417,-201.325 -133.584,-368.55 -282.584,-506.796c-200.25,-185.825 -441.875,-269.15 -709.583,-251.738c-276.376,17.971 -504.463,144.446 -670.209,370.467c-179.041,244.176 -246.042,514.359 -162.583,810.151c79.959,283.375 256.708,489.124 528.333,605.707c170.084,73 351.208,84.709 531.625,52.751c487.917,-86.417 788.834,-539.959 775.625,-931.292Zm-1959.83,-2086.19c31.25,8.638 52.083,16.167 73.541,20.042c122.876,22.138 245.417,46.35 368.876,64.266c181.416,26.326 363.541,45.18 547.541,35.122c69.25,-3.784 138.75,-7.08 208.042,0.487c19.041,2.08 41.5,1.521 56,11.487c37.834,26.03 79.083,24.117 120.333,22.038c80.458,-4.054 160.75,-13.254 239.167,-31.288c97.416,-22.404 195.167,-41.812 294.291,-54.662c24.751,-3.208 49.292,-8.071 73.793,-12.808c12.333,-2.388 18.666,-10.517 17.916,-23.509c-0.792,-13.721 -9.583,-19.329 -21.708,-19.241c-8.125,0.062 -16.25,3.246 -24.417,4.687c-120.208,21.138 -240.125,44.033 -360.708,62.7c-84.917,13.15 -170.458,23.746 -256.792,23.375c-61.542,-0.266 -63.708,-0.175 -74.625,-62.816c-14.25,-81.963 -28.25,-164.238 -36.25,-246.967c-19.875,-204.634 -54.208,-406.83 -93.5,-608.416c-38.209,-195.972 -74.292,-392.363 -111.917,-588.455c-28.749,-150.004 -45.416,-301.733 -66.291,-452.87c-2.125,-15.43 2.875,-34.339 -16.251,-43.638c-15.666,3.149 -21.875,16.304 -28.208,27.899c-18.541,34.104 -37.625,68.093 -53.374,103.509c-98.251,220.707 -213.625,432.778 -324.88,646.934c-139.375,268.358 -278.287,536.957 -399.996,813.97c-43.458,98.855 -84.333,198.817 -130.583,308.154Zm525.875,8621.69c-10.796,-26.084 -15.333,-42.208 -23.583,-56.125c-38.296,-64.5 -115.463,-65.667 -155.542,-1.958c-11.667,18.583 -19.875,39.667 -27.334,60.458c-53.125,147.375 -55.208,298.792 -34.249,451.833c0.583,4.25 6.416,7.75 9.916,11.751c21.126,-4.543 28.917,-24.292 42.042,-37.709c54.292,-55.583 107.709,-112 162.204,-167.375c7.796,-7.916 16.004,-22.375 34.796,-11.833c-5.167,13.541 -9.333,26.416 -14.879,38.666c-73.538,162.542 -101.955,333.709 -94.709,510.917c2.917,72.042 7.546,144.5 18.75,215.583c9.838,62.459 7.379,127.625 33.463,188.709c20.375,-15.417 23.208,-38 30.709,-57.959c36.166,-96.083 71.666,-192.499 119.583,-283.5c12.541,-23.916 19.791,-52.167 45.416,-67.583c30.959,17.167 13.583,49.375 22.417,73.542c5.625,15.375 6.459,32.583 8.708,49.083c26.876,195.292 61,389.25 115.251,579c64.041,223.958 129.416,447.542 185.957,673.542c2,7.958 4.042,16.291 8.25,23.083c2.125,3.5 8.959,4.5 13.917,5.667c1.417,0.375 4.958,-2.25 5.334,-4c2.292,-10.792 4.417,-21.667 5.749,-32.625c13.043,-107.417 23.875,-215.167 39.251,-322.25c43.458,-302.083 94.124,-603.167 118.833,-907.709c2.375,-29.291 8.375,-58.291 14.708,-101c18.833,58.792 25.083,105.125 30.084,151.792c5.083,46.875 12.041,93.542 17.375,140.417c5.333,46.833 9.75,93.791 14.416,140.75c4.542,45.458 2.209,92.083 25.042,151.416c93.708,-370.917 149.042,-729.416 112.208,-1098c8.459,0.792 12.75,0.084 13.625,1.459c107.584,171.999 172.25,364.25 254.834,550.666c20.583,-19.874 21.375,-42.333 25.083,-63.166c5.333,-30.042 10.167,-60.292 12.958,-90.625c14.75,-158.084 19.126,-316.167 -13.124,-472.75c-18.584,-90.042 -47.751,-176.75 -97.126,-255.417c-22.25,-35.458 -46.458,-69.125 -81.75,-93.208c-18.208,-12.417 -31.833,-7.792 -36.041,12.458c-6.042,29.125 -1.209,61.042 -20.583,86.333c-13.459,-1.958 -19.625,-11.375 -26.793,-19.791c-14.375,-16.876 -27.541,-35.292 -44.208,-49.584c-59.541,-51.208 -128.25,-41.666 -171.125,23.251c-18.416,27.958 -30.292,59.083 -38.667,91.625c-4.541,17.75 -4.999,37.958 -23.833,49.874c-21.917,-14.833 -28.958,-40.375 -44.291,-59.667c-13.875,-17.499 -28.667,-33.541 -48.209,-45.208c-32.291,-19.25 -63.166,-18.25 -93.291,3.792c-27.5,20.125 -46.958,46.917 -62.125,77.042c-20.126,39.833 -34.292,81.791 -44.125,125.25c-3.125,13.833 -6.167,27.208 -26.208,29.083c-2.751,-16.083 -4.584,-32.583 -8.542,-48.583c-11.917,-48.5 -23.833,-97.126 -48.459,-141.25c-21.917,-39.292 -49.083,-74.042 -89.375,-96.375c-49.625,-27.5 -88.083,-22.75 -127.958,16.875c-13.667,13.583 -25.463,29.041 -44.75,51.333Zm2960.58,4339.42c0,22.208 2.167,44.666 -0.458,66.583c-4.416,36.75 9.917,62.25 36.959,86.417c51.791,46.291 99.457,96.958 132.541,159.083c11.541,21.708 27.708,31.417 52.625,33.125c38.667,2.625 77.292,7.542 115.5,14.167c292.125,50.916 511.667,202.666 648.167,468.916c15.166,29.584 29.874,59.459 44.167,89.5c7.833,16.5 20.124,24.167 38.083,27.667c46.208,8.917 92.291,18.917 137.999,30.125c29.459,7.25 58.334,24.833 87.209,24.167c30.708,-0.667 47.875,-34.834 72.291,-52.709c74.125,-54.291 152.918,-76.833 242.251,-42.208c12.916,5 26.624,7.875 39.583,12.708c43.667,16.25 86.625,15.75 129.666,-2.625c28.042,-11.958 55.876,-25.583 85.126,-33.25c42.916,-11.208 66.458,-33.791 68.041,-80.125c1.751,-51.291 25.459,-95.833 50.375,-139.416c24.875,-43.542 54.584,-83.542 87.417,-121.334c53.542,-61.541 53.459,-61.625 8.125,-132.333c-1.5,-2.333 -3.042,-4.625 -4.583,-6.958c-102.917,-155.917 -255.792,-218.292 -438.834,-177.25c-40.374,9.041 -79.583,23.5 -119.416,35.125c-11.167,3.25 -23.042,-6.917 -20.667,-17.709c5.917,-27.041 13.375,-53.791 18.791,-80.916c18.209,-90.75 21.501,-181.084 -2.208,-271.959c-61.708,-236.541 -329.875,-493.999 -697.124,-437.833c-86.043,13.167 -165.792,44.167 -240.959,87.75c-16.708,9.667 -32,7.208 -42,-11.167c-14.584,-26.791 -28.416,-54 -43.458,-80.5c-96.542,-170.166 -225.667,-308.333 -398.167,-403.541c-199.042,-109.792 -415.584,-150.375 -639.5,-161.375c-23.5,-1.167 -32.916,7.083 -36.25,35.666c-9.667,82.833 -26.292,164.167 -47.625,244.709c-8.667,32.792 -4.667,38.75 26.25,47.083c26.75,7.208 54.084,12.542 80.541,20.708c185.834,57.333 328.793,169.292 426.084,338.167c76.875,133.542 104.542,279.208 103.458,431.542Zm-4275.96,-798.667c-13.25,-80.75 -38.875,-160.333 -41.5,-243.583c-0.458,-14.959 -12.708,-24.292 -27.709,-26.458c-16.416,-2.417 -33.083,-3.459 -49.624,-4.917c-209.459,-18.459 -408.959,23.041 -600.292,105.208c-212.792,91.334 -380.792,236.333 -498.5,436.667c-32.208,54.833 -58,113.5 -86.125,170.708c-6.125,12.5 -10.125,25.75 -28.75,26.583c-2.625,-10.291 -5.375,-20.916 -8.084,-31.583c-28.749,-113.083 -103.666,-180 -212.749,-212.5c-70.209,-20.875 -141.334,-23.041 -214.042,-14.375c-307.458,36.667 -574.875,362.042 -470.5,699.958c3.125,10.042 7.417,20.667 -0.792,31.792c-23.25,9.333 -48.5,5.083 -73.083,4.625c-50.417,-0.875 -99.667,6.542 -148.292,18.333c-210.458,50.959 -344.833,233.959 -327.208,449.584c7.625,93.083 37.583,179.333 104.833,247.916c45.125,46 72.042,49.167 131.917,18.917c81,-40.917 155.667,-29.708 224.333,26.875c17,13.958 30.417,32.208 46.125,47.792c8,7.958 18.083,12.041 30.083,11.083c34.667,-2.875 65.209,-14.083 85.959,-43.542c9.583,-13.541 18.917,-27.75 25.292,-42.916c29.874,-70.875 152.916,-72.417 184.041,-1.292c4.417,10.125 10.125,19.833 16.208,29.042c31.75,48 85.875,54.166 125.876,10.875c28.125,-30.417 51.916,-65 75.833,-99c167.667,-238.584 388.083,-408.75 661.083,-510.792c80.709,-30.167 163.292,-53.875 249.125,-63.875c37.417,-4.375 68.25,-16.875 92.75,-48c23.958,-30.375 51.417,-58.583 80.5,-84.125c30.334,-26.625 39.084,-57.417 34.501,-96c-3.251,-27.417 -2.667,-55.458 -2.209,-83.167c4.25,-251.458 113.375,-447.083 317.125,-591.5c70.792,-50.166 150.042,-83.416 232.459,-109.166c23.541,-7.334 48.458,-10.75 71.416,-29.167Zm-4910.57,-126.75c13.584,-15.166 14.929,-35.208 18.867,-53.708c19.358,-90.959 74.729,-153.209 154.658,-195.584c89.88,-47.708 183.159,-60.833 281.255,-26.291c55.362,19.541 56.441,18.875 83.245,-26.667c25.617,-43.5 57.254,-81.625 94.504,-115.541c14.071,-12.834 32.092,-22.375 40.155,-46.084c-11.538,-21.833 -24.775,-45.958 -37.142,-70.5c-27.779,-55.125 -45.038,-112.75 -47.071,-175.292c-3.6,-110.5 31.329,-207.458 98.625,-293.5c96.921,-123.917 227.05,-182.708 381.838,-191.583c32.146,-1.833 64.358,-2.458 99.662,-3.75c-3.504,-14.25 -3.937,-22.667 -7.5,-29.458c-47.983,-91.292 -103.796,-177.333 -174.333,-253c-188.584,-202.25 -424.05,-279.375 -693.892,-244.959c-174.587,22.292 -329.175,97.375 -457.137,221.25c-29.884,28.917 -59.229,58.875 -85.009,91.375c-22.054,27.833 -42.546,36.917 -78.058,23.208c-70.113,-27.083 -143.642,-41.499 -218.992,-46.916c-284.416,-20.375 -590.216,162.292 -644.866,535c-18.534,126.417 -1.117,136.25 89.658,191.041c2.379,1.459 4.721,2.959 7.2,4.209c93.575,46.625 155.667,123.167 202.629,213.875c5.646,10.917 17.188,22.25 3.404,35.459c-2.646,-1.418 -5.454,-2.292 -7.491,-4.084c-12.525,-10.917 -24.875,-22 -37.279,-33.083c-153.517,-136.75 -330.846,-195.875 -536.98,-172.75c-306.883,34.375 -632.708,287.791 -605.391,719.041c10.729,169.375 69.27,321.5 199.395,435.375c185.413,162.292 398.138,211.084 635.35,133.125c63.221,-20.75 125.059,-45.833 190.517,-59.375c91.188,-18.833 176.583,-7.208 253.892,47.917c10.621,7.542 18.771,21.083 35.133,16.958c11.304,-15.833 1.908,-32.125 1.746,-48c-0.404,-38.833 -4.2,-77.833 -1.696,-116.458c5.433,-83.833 40.763,-155.042 101.384,-212.792c55.433,-52.833 120.433,-78.125 198.075,-62.166c4.77,0.958 14.333,-1.542 14.974,-4.083c1.784,-7.126 3.188,-18.334 -0.816,-22.251c-46.988,-45.958 -28.413,-90.583 2.008,-134.458c48.725,-70.208 114.408,-114.166 201.488,-115c76.325,-0.708 148.796,16.833 209.612,67.375c10.508,8.75 19.029,20.459 34.379,22.125Zm7954.57,-773.75c23.959,27.083 47.709,23.292 68.791,27.042c156.834,27.958 297.501,86.875 407.667,207.208c57,62.25 103.417,131.125 130.584,210.792c13.208,38.875 35.208,49.166 73.249,49.499c97.334,0.917 193.709,14.167 289.251,32.376c315.416,60.083 573.708,215.25 774.249,466.208c28.626,65.459 75.042,61.583 135.459,44.875c140.791,-38.833 284.209,-43.917 428.375,-12.958c269.083,57.75 559.333,291.833 597,639.291c2.875,26.459 4.417,54.5 20.167,78.542c31.25,-0 58.791,0.417 86.375,-0.042c88.333,-1.458 169.708,22.792 246.416,65.334c92.667,51.375 160.042,126.833 211.667,218.208c11.875,21.083 15.625,48.5 43.541,61.042c59.751,-25.959 120.834,-52.459 185.459,-69.084c72.916,-18.75 145.417,-31.083 221.958,-17.416c115.209,20.583 219.292,59.833 298.417,150.208c15.709,17.917 32.375,17.417 51.792,7.625c57.041,-28.875 112.625,-60.333 163.124,-99.667c246.626,-192.041 342.584,-443.666 285.876,-749.75c-52.542,-283.458 -297.167,-602.708 -732.917,-630.125c-190.25,-11.958 -360.917,47.875 -514.542,158.709c-20.208,14.583 -39.874,29.958 -60.25,44.333c-9.583,6.75 -22.458,-0.5 -22.958,-12.917c-0.959,-24.958 -0.875,-49.916 -1.583,-74.874c-5.125,-176.418 -66.834,-330.042 -186.042,-460.293c-93.792,-102.541 -207.25,-176.041 -338.584,-219.833c-278.374,-92.916 -610.125,-28.916 -801.666,228.25c-9.333,12.542 -15.708,30.25 -39.875,31.959c-5.5,-25.667 -11.292,-52.042 -16.792,-78.458c-6.75,-32.584 -11.458,-65.667 -20.208,-97.709c-69.416,-253.834 -221.334,-438.958 -464.833,-542.25c-325.292,-138 -657.667,-40.875 -859.542,203.083c-10.334,12.5 -24,23.75 -23.708,46.792c72.333,33.625 158.416,34.542 242.541,83.958c-86.083,6.875 -155.708,-12.791 -226.374,-14.541c-72.125,-1.792 -144.084,-8.917 -216.209,-11.334c-72.167,-2.416 -144.208,1 -216.291,6.709c-71.959,5.666 -143.376,12.625 -219.584,29.208Zm-1528.96,-7284.92c25.875,39.666 23.126,70.458 23.668,100.332c3.916,230.459 5.916,460.918 11.458,691.334c13.708,571.834 28.958,1143.67 43.75,1715.46c3,116.583 6.666,233.166 10.166,349.749c2.126,70.458 2.209,71.209 76.667,71.042c94.417,-0.25 188.833,-1.667 283.25,-2.958c19.375,-0.25 38.917,-1.042 58.166,-3.417c29.792,-3.709 36.917,-11.333 38.792,-43.458c6.167,-105.292 12.292,-210.625 17.042,-316.042c7.833,-174.708 15.166,-349.5 21.667,-524.292c14.583,-391.208 29.958,-782.417 42.291,-1173.71c10.583,-335.834 18.417,-671.75 25.375,-1007.62c4.334,-208.209 4.958,-416.5 6.917,-624.75c0.25,-24.958 -0.583,-50 -2.291,-74.917c-1.542,-22.333 -11.584,-29.874 -33.084,-23.624c-82.792,24.041 -166.459,41.957 -252.708,49.541c-289.459,25.375 -545.001,-55.875 -759.417,-250.875c-261.5,-237.75 -383.5,-537 -342.625,-888.917c40.667,-350.008 223.25,-616.429 526.208,-796.746c176.334,-104.958 368.417,-151.004 574.333,-134.445c69.543,5.596 136.876,21.641 203.918,39.703c58.208,15.697 59.707,15.714 56.458,-47.553c-4.292,-83.15 -10.417,-166.229 -17.25,-249.217c-8.417,-102.354 -18.333,-204.584 -27.75,-306.854c-1,-11.046 -2.5,-22.05 -4.042,-33.033c-1.792,-12.683 -10.125,-19.571 -22.083,-20.138c-22.125,-1.05 -44.376,-1.021 -66.542,-0.85c-147.208,1.133 -294.083,-1.021 -441.167,-11.721c-275.171,-20.017 -544.708,-67.808 -809.166,-146.079c-78.417,-23.2 -71.917,-37.02 -103.876,52.637c-204.041,572.793 -325.041,1164.06 -389.958,1767.42c-17.208,159.999 -27.541,320.791 -39.249,481.333c-16.417,224.333 -26.584,449.042 -28.584,673.958c-8.083,891.375 -14.417,1782.75 13.792,2673.96c4.666,147.082 2.874,294.333 6.333,441.458c2.291,97.042 6.958,194 25,289.999c7,37.334 26.083,60.667 59.208,73.501c33.584,12.999 67.5,25.916 102.376,34.458c108.041,26.375 218.791,36.75 328.791,51.25c8.167,1.084 16.625,0.792 24.875,0.291c12.667,-0.708 20.583,-8.333 21.375,-20.458c1.667,-24.916 2.5,-49.875 2.583,-74.833c1.209,-399.916 2.334,-799.791 15.792,-1199.5c1.083,-32.75 2.792,-65.459 4.208,-98.166c15.209,122.374 23.375,244.249 25.792,366.249c6.25,310.958 9.875,621.959 14.666,932.917c0.376,25 1.459,49.958 2.834,74.916c0.875,15.625 10.125,25.459 25.167,28.334c16.333,3.125 32.875,5.542 49.416,6.917c130.042,10.5 260.083,20.958 390.163,30.833c30.462,2.292 61.046,2.417 91.587,3.125c20.209,0.5 30.125,-10.5 31.5,-30.125c1.209,-16.583 2.792,-33.208 3.584,-49.833c8.333,-171.959 18.166,-343.834 24.333,-515.834c10.042,-280.25 18.584,-560.583 26.041,-840.917c9.084,-341.416 16.959,-682.874 24.292,-1024.33c3.209,-149.834 3.917,-299.751 5.958,-465.5Zm1145.13,8593.58l1.874,1.5c0.75,-8.167 -0.791,-17.417 2.543,-24.334c74.208,-154.041 184.083,-269 351.208,-322.542c50.083,-15.999 100.124,-33.916 147.249,-56.874c85.959,-41.875 136.126,-112.667 147.875,-207.875c15.959,-129.75 -56.083,-264.917 -172,-326.584c-88.666,-47.167 -176,-42.75 -260.958,9.292c-43.374,26.542 -78.208,62.75 -103.417,106.667c-23.457,40.791 -43.374,83.625 -65.082,125.416c-5.834,11.167 -8.542,26.501 -30.001,23.376c2.001,-30.459 4.167,-60.751 5.917,-91.084c8.459,-148.375 -8.333,-293.708 -53.333,-435.541c-2.501,-7.834 -5.167,-16.001 -9.709,-22.667c-1.458,-2.084 -12.208,-1.625 -13.833,0.833c-10.458,16.083 -20.625,32.5 -29,49.708c-73.917,152.25 -146.958,304.917 -221.542,456.875c-10.458,21.375 -16.208,47.417 -48.083,65.917c24.083,-131.958 56.542,-254.667 80.625,-379.042c32,-165.416 50,-319.125 43,-379.208c-15.708,13.5 -19.375,32.542 -24.75,51.208c-4.541,15.709 -7.917,33.083 -28.084,42.625c14.042,-109.875 45.959,-212.916 89.792,-311.916c46.042,-103.958 94.5,-206.959 145.126,-308.792c171.583,-345.333 239.499,-713.25 242.333,-1095.71c0.083,-11.084 -0.625,-22.167 -1.376,-33.251c-0.833,-11.708 -5.374,-20.833 -21.957,-23.083c-15.334,61.125 -30.542,122.792 -46.334,184.334c-42.084,164.375 -106,321.208 -167,479c-44.125,114.041 -80.75,230.25 -106.375,349.916c-3.708,17.125 2.458,37.834 -23.083,58.875c-17.917,-90.167 -18.667,-176.833 -37,-266.916c-20.001,26.958 -23.542,51.333 -27.458,75.75c-22.501,139.666 -45.167,279.333 -67.834,418.958c-2.208,13.458 -3,28.25 -23.667,29.458c-7.624,-71.458 -15.166,-142.833 -22.917,-214.208c-9.25,-85.75 -27.125,-169.791 -53.125,-252c-4.166,-13.25 -5.833,-31.542 -29,-33.958c-7.124,27.875 -14.374,54.541 -20.708,81.416c-76.583,323.875 -154.666,647.375 -246.374,967.5c-68.834,240.292 -123.459,483.834 -148.459,733.167c-1.666,16.833 -5.666,33.417 -8.542,50.125c-14.041,-24.542 -21.666,-48.25 -25.042,-72.583c-11.958,-85.167 -24.958,-170.334 -32.958,-255.958c-19.916,-213.418 -61.5,-422.417 -116.875,-629.292c-85.417,-318.959 -198.499,-629.542 -285.791,-947.875c-1.921,-7 -3.75,-15.375 -19.588,-10.751c-3.829,27.751 -8.871,57.584 -11.787,87.626c-2.958,30.375 -3.292,61 -5.667,91.458c-2.338,30.417 -6.25,60.75 -8.546,91.208c-2.287,30.459 -3.829,60.958 -4.996,91.5c-1.254,33.292 -1.916,66.625 -2.421,99.917c-0.454,30.542 -0.454,61.125 -0.37,91.667c0.083,30.541 0.833,61.083 0.791,91.625c0,28.333 5.084,57.208 -4.833,98.083c-31.542,-64.583 -42.505,-121.667 -58.708,-176.75c-42.25,-143.667 -82.459,-288 -135.084,-428.375c-6.125,-16.333 -5.167,-39.667 -32.625,-43.458c-10.791,116.625 15.876,231.708 11.875,351.916c-23.458,-18.374 -24.542,-40.916 -29.125,-62.124c-81.083,-375.209 -208.125,-736.334 -337.5,-1096.67c-4.208,-11.667 -1.958,-34.375 -29.25,-33.417c-0.958,234.583 17.959,466.083 76.667,693.375c50.958,197.333 127.333,384.375 229.417,560.583c64.333,111.001 114.916,227.75 154.541,349.459c80.875,248.542 138.663,502.541 178.834,760.666l0.916,-1.625c-8.796,2.75 -17.046,0.542 -20.958,-7.25c-12.375,-24.708 -23.75,-49.958 -35.292,-75.124c-70.416,-153.917 -148.416,-303.543 -248.125,-440.917c-12.541,-17.292 -21.458,-38.917 -51.667,-50.584c-23.791,73.042 -18.291,147.751 -27.374,220.042c-9.459,75 4.75,149.333 11.416,223.708c6.501,72.959 28.458,144.25 29.084,225.458c-30.459,-26.583 -33.375,-58.666 -45.458,-85.499c-29.75,-66 -62.667,-129.126 -115.709,-180.584c-101.875,-98.791 -307.5,-123.166 -426.667,31.25c-36.333,47.042 -60.916,99.084 -72,157.126c-26.167,137.249 45.209,277.541 171.417,336.541c30.042,14.083 60.958,26.667 92.375,37.333c146.208,49.625 235,160.792 309.792,287.125c7.875,13.292 3.5,26.625 -4.459,38.834l1.125,1.25c-35.416,-62.667 -93.708,-100.25 -152.333,-136.875c-30.792,-19.25 -64.875,-33.125 -100.75,-37.917c-94.833,-12.667 -186.208,3.583 -284.167,37.625c29.667,30.417 54.709,55.458 79,81.167c24.833,26.208 49.875,52.291 73.084,79.875c25.041,29.708 48.916,60.458 71.75,91.916c21.166,29.209 41.375,59.209 59.958,90.125c17.792,29.542 41.625,56.709 52.333,109.875c-31.625,-31.25 -50.958,-50.333 -70.25,-69.458c-57.5,-56.875 -120.875,-106.333 -189.875,-148.5c-69.375,-42.375 -143.583,-72.708 -223.916,-86.292c-120.708,-20.5 -232.584,-0.083 -329.667,78.084c-162.625,130.916 -171.667,351.333 -20.583,495.166c26.083,24.834 55.542,46.125 82.667,69.875c8.666,7.584 23.791,13.542 14.749,33.459c-32.208,-8.125 -64.041,-16.75 -96.166,-24.167c-72.667,-16.833 -142.917,-10.917 -211.209,20.875c-203.958,94.917 -243.874,343.5 -78.667,495.708c22.417,20.667 47.459,38.417 71.209,57.584c10,8.083 23.667,13.333 23.833,29.541c-14.374,7.209 -27.083,-0.208 -40.291,-3.5c-48.459,-12.041 -96.625,-25.416 -145.5,-35.333c-132.459,-26.875 -264.292,-28.083 -395.5,10.208c-286.584,83.542 -512.667,331.959 -500.417,647.834c1.042,26.708 6.833,54.625 -6.292,80.583c-37.666,1.042 -46.708,-34.5 -66.666,-54.542c-60.75,-61.166 -120.626,-123.125 -193.709,-169.875c-191.791,-122.666 -389.375,-134.458 -591.833,-27.916c-36.75,19.333 -71,43.416 -106.875,64.583c-13.125,7.75 -23.583,24.417 -42.75,15.958c-1.666,-2.583 -3.667,-4.708 -4.625,-7.25c-4.792,-13.041 -9.917,-26 -13.833,-39.291c-34.292,-116.209 -116.75,-171.125 -232.959,-180.709c-136.5,-11.25 -251.083,34.542 -341.083,138.292c-21.75,25.042 -39.958,53.208 -59.833,79.917c-6.505,8.666 -12.042,20.166 -25.75,15.708c-12.209,-3.958 -12.792,-16.708 -16,-26.583c-14,-43.584 -9.959,-87.625 -3.375,-131.875c5.666,-38.417 11.208,-76.959 14.208,-115.667c4.333,-56.25 -4.375,-110.708 -29.875,-161.75c-154.763,-309.792 -531.846,-290.292 -697.454,-71.417c-87.584,115.792 -99.304,243.25 -51.271,378.667c8.862,24.958 30.113,46.5 24.383,78.833c-22.575,4.125 -43.975,-0.875 -65.562,-5.541c-52.075,-11.292 -104.979,-11.292 -157.609,-7.459c-132.07,9.625 -235.591,95.792 -270.466,223.042c-30.996,113.042 12.396,235.917 107.216,302.208c79.205,55.375 185.434,62.75 288.296,-7.541c24.484,-16.75 44.192,-51.871 74.867,-45.792c29.479,5.833 38.55,44.458 59.175,66.625c75.258,80.875 166.942,117.213 276.933,102.917c38.43,-5 76.454,-13.417 114.446,-21.288c48.904,-10.129 97.267,-23.212 146.434,-31.712c125.112,-21.58 223.945,19.416 292.487,128.041c11.833,18.792 22.5,38.292 34.583,56.917c2.417,3.708 8.959,6.875 13.292,6.542c4.375,-0.375 10.375,-4.542 12.125,-8.542c4.417,-10.083 6.667,-21.083 10.125,-31.583c25.167,-77.25 78.667,-125.667 154.625,-150.746c13.166,-4.379 26.625,-7.838 40.125,-11.046c29.709,-7.125 47.292,-21.958 50.25,-55.917c5.458,-62.454 33.375,-116.708 70.958,-166.291c173.334,-228.792 568,-235.292 749.959,-40.792c70.708,75.583 113.583,163.708 100.666,271.629c-5.875,49.292 1.75,57.625 51.042,58.913c13.833,0.333 27.833,-0.542 41.583,-2.209c71.417,-8.704 122.667,21.834 162.084,79.5c26.916,39.417 46.75,81.625 61.542,126.792c5.458,16.667 18.333,20.167 32.541,10.917c30.208,-19.625 58.584,-42.834 90.542,-58.917c100.833,-50.75 191.75,-21.833 248.583,75.792c10.625,18.166 12,42.958 36.917,53.416c8.166,-30.166 14.666,-59.958 24.291,-88.791c42.667,-127.959 156.584,-207.709 291.292,-205.042c11.083,0.25 22.208,1.375 33.25,0.921c24,-1.004 33.875,-11.459 29.917,-37.584c-11.959,-78.67 12,-148.545 51.749,-213.879c129.042,-212.291 413.584,-292.583 639.501,-139.583c130.583,88.5 217.875,206.167 186.375,378.546c-2.209,12.121 5,22.412 18.791,19.875c18.959,-3.504 37.5,-9.588 56.167,-14.917c21.292,-6.083 42.875,-11.542 63.625,-19.212c16.083,-5.917 36.583,-3.538 50.375,-19.459c-64.542,-49.125 -73.208,-59.833 -95.125,-134.791c-31.667,-108.459 -24.542,-215.792 26.542,-316c91.083,-178.584 233.208,-292.875 434.083,-328.875c44.208,-7.917 88.042,-9.834 132.583,-6.959c22.292,1.417 29.792,-9.125 24.917,-31.083c-7.166,-32.458 -15.417,-64.708 -22.042,-97.292c-8.416,-41.291 -8.208,-82.708 0.584,-124.083c39.5,-185.542 143.375,-318.833 325.792,-377.75c182.832,-59.042 344.541,-11.292 483.583,118.833c18.083,16.917 31.291,39.417 58.083,50.667c25.541,-23.583 51.416,-48.417 78.292,-72.125c65.625,-57.875 139.041,-103.917 225.917,-118.667c324.916,-55.208 608.5,213.334 573.125,534.042c-3.959,35.583 -10.459,70.917 -16.167,109.125c33.208,12.042 66.708,3.958 99.25,4.917c90.833,2.75 175.916,23.625 250.958,76.833c177.75,126.042 248.583,299.792 224.084,513.417c-7.334,64.208 -31.417,123.583 -78.417,171.208c-8.667,8.75 -23.126,15.708 -17.208,35.167c16.874,6.333 34.791,13.625 53.041,19.837c19.834,6.788 35.541,26.163 61.625,20.204c11.25,-39.833 21.292,-80.166 33.958,-119.625c74.583,-232.291 313.083,-332.375 495.25,-316.916c179.042,15.25 375,141.708 417.167,380.875c4.625,26.208 -6.875,60.212 19.084,77.166c23.249,15.167 54.083,5.005 81.499,5.255c145.501,1.12 247.626,69.579 310.792,198.704c12.166,24.875 21.334,51.166 32.375,76.583c4.791,11 19.75,14.333 27.042,6.125c16.625,-18.667 31.458,-39 49.167,-56.5c78.791,-77.875 163.208,-94.954 257.166,-45.542c21.25,11.167 40.458,30.125 66.542,28.042c14.249,-11.042 10.208,-25.75 11.583,-38.746c1.417,-13.792 0.792,-27.796 2.583,-41.546c13.167,-101.666 77.834,-165.5 178.959,-177.625c30.292,-3.625 60.458,-8.208 90.667,-12.458c19.041,-2.662 29.791,-14.958 32.916,-32.667c5.833,-32.662 12.041,-65.5 14.625,-98.537c6.625,-84.588 48.25,-146.088 120.125,-188.213c21.458,-12.583 43.875,-24 66.958,-33.125c100.292,-39.625 203.917,-52.583 310.458,-33.333c179.876,32.5 309.918,129.042 380.709,300c9.5,23 15.667,47.379 23.917,70.917c8.333,23.916 16.958,44.75 47.541,51.75c34.208,7.875 56.167,33.295 66.959,68.041c4.874,15.625 13.708,30.084 21.625,44.588c5.458,10.037 21.583,8.958 26.874,-1.504c4.959,-9.875 10.959,-19.709 13.376,-30.292c23.291,-103.542 97.375,-149.5 192.874,-171.542c102.876,-23.708 198.209,-2.75 287.959,49.584c61.041,35.629 108.916,85.25 151.083,141.291c14.542,19.292 22.126,45.209 47.583,54.921c146.167,-75.791 233.501,-179.083 287.459,-340.129c6.625,-19.708 6.625,-42.708 26.584,-56.167c22.207,17.709 27.499,43.709 41.75,63.921c14.333,20.413 27.041,42.121 42.75,61.375c39.999,49.079 92.124,69 155.208,60.834c84.292,-10.88 142.916,-56.463 179.333,-131.88c30.084,-62.458 32.792,-129 22.875,-195.708c-26.583,-178.542 -193.25,-287.833 -368.25,-243.75c-40.792,10.25 -78.125,27.833 -115.208,47c-16.125,8.333 -29.083,27 -53.917,19.458c-0.042,-23.333 17.042,-39.25 27.083,-57.416c25.5,-46.25 50.083,-92.459 65.292,-143.542c22.291,-75.042 18.166,-147.833 -12.333,-219.583c-50.751,-119.209 -181.625,-243.167 -379.126,-237.459c-209.125,6.042 -346.541,151.042 -347.207,358.292c-0.209,64.5 13.499,126.708 25.582,189.333c1.917,10.042 7.584,20.625 -7.791,30.584c-28.625,-23.625 -57.458,-49 -87.875,-72.25c-114.125,-87.25 -242.208,-121.25 -384,-94.584c-120.958,22.75 -208.291,87.417 -246.208,208.959c-4.917,15.708 -5.75,33.208 -21.875,43.583c-23.875,-0.625 -38.459,-19.542 -57.501,-29.75c-41.499,-22.292 -81.499,-47.792 -124.291,-67.292c-127.834,-58.208 -260.583,-71.166 -398.417,-41.083c-131.375,28.667 -242.708,92.292 -339.708,183.708c-19.542,18.417 -34.542,43.084 -61.625,51.959c-14.625,-17.125 -5.541,-33.334 -4.833,-48.875c1.833,-41.584 7.083,-83.209 5.791,-124.625c-10.333,-324.042 -261.25,-510.834 -473.124,-546.459c-137.792,-23.166 -270.792,-9.416 -403.25,27.584c-26.167,7.291 -52,15.833 -78.626,24c-4.833,-25.542 12.709,-33.042 22.376,-44.834c26.416,-32.125 55.333,-62.375 79.541,-96c39.334,-54.541 50.5,-117.166 38.708,-182.541c-34.417,-190.459 -229.749,-314.167 -386.5,-264.167c-21.083,6.708 -42.875,11.333 -64.5,16.25c-11.916,2.667 -24.541,11.458 -39.208,-5.125c26.541,-20.292 52.625,-40.208 78.625,-60.167c46.584,-35.75 88.541,-75.875 119.666,-126.291c70.126,-113.542 57.917,-247.417 -32,-346.25c-48,-52.75 -107.375,-86.959 -175.624,-106.625c-79.209,-22.792 -159.709,-21.292 -239.542,-8.209c-214.167,35.125 -402.208,122.834 -553.166,282.709c-8.001,8.5 -13.334,25.625 -33.876,16.916c98.125,-176.791 238.334,-319.041 372.459,-462.5c-8.25,-16.583 -18.334,-21.291 -29.25,-22.25c-58.042,-5.166 -116.084,-12.958 -174.209,-13.5c-98.499,-0.874 -184.5,34.792 -256.874,101.917c-20.334,18.833 -39.168,39.292 -58.792,58.917c-7.708,7.708 -15.125,16.333 -28,12.875Zm-6622.91,-2938.58c6.429,-8.625 11.379,-19.083 19.504,-25.542c122.134,-97.375 259.55,-135.749 413.146,-99.624c210.975,49.624 357.925,171.291 415.3,385.958c29.376,109.833 23.459,219.416 -15.75,327.167c-10.083,27.75 -31.916,53.125 -23.166,86.166c-9.417,-1.583 -15.459,-0.749 -7.584,10.334c2,-4 4.042,-8 6.042,-12c26.958,-4.417 39.458,-28.542 58.496,-43.542c58.504,-46.208 123.796,-70.375 198.629,-76.042c187.75,-14.25 411.75,102.251 488.583,329.709c13.292,39.291 21.459,80.333 32.334,120.5c9.708,35.958 11.25,36.499 44.291,30.291c32.709,-6.125 65.334,-13.833 98.334,-16.749c152.25,-13.501 278.166,36.666 372.875,158.874c27.333,35.292 47.708,74.75 67.291,114.709c5.417,11.041 6.167,28.416 29.667,26.375c22.75,-27.792 46.917,-57.833 71.625,-87.5c98.916,-118.917 215.667,-216.542 354.417,-285.25c244.041,-120.792 499.666,-140.125 762.375,-76.834c250.792,60.375 449.333,198.792 598.333,408.875c16.041,22.667 33.458,44.876 45.75,69.5c18.75,37.542 47.167,48 87.375,47.125c128.583,-2.833 255.125,11.25 375.833,59.083c27.458,10.876 46.459,3.167 66.875,-15.999c48.501,-45.625 98.667,-89.542 148.709,-133.542c34.875,-30.667 35.833,-30.5 14.208,-75.959c-62,-130.332 -120.166,-262.291 -172.125,-397.041c-125.333,-324.916 -193.083,-659.667 -176.75,-1009.5c5.417,-116.708 15.417,-233.25 40.875,-346.958c53.5,-238.625 126.417,-471.501 225.083,-695.792c11.125,-25.25 20.625,-51.25 30.875,-76.917c-20.208,-29.583 -53.958,-22.583 -82.166,-29.791c-78.125,-20 -155.667,-41.792 -226.375,-81.75c-132.792,-75.125 -223.792,-180.542 -240.709,-338.417c-0.875,-8.208 -2.541,-16.458 -4.916,-24.333c-2.709,-9.209 -10.959,-13.958 -18.834,-10.209c-17.417,8.334 -34.416,17.917 -50.375,28.792c-133.375,90.625 -261.5,188 -382.291,294.958c-344.375,304.917 -624.125,661.709 -852.334,1060c-160.666,280.375 -283.833,577.376 -391.041,881.459c-25.833,73.25 -51.042,146.666 -67.75,222.75c-3.084,14.166 -2.875,32.75 -23.292,36.875c-19.208,-25.667 -25.334,-56.292 -33.333,-85.25c-36.292,-131.001 -70.667,-262.5 -105.209,-393.959c-18.333,-69.75 -36.458,-139.583 -53.083,-209.75c-7.833,-33.166 -26.459,-52.541 -58.667,-63.125c-42.125,-13.833 -82.875,-31.875 -124.916,-46.041c-85.292,-28.709 -171.875,-43.834 -261.917,-23.167c-29.416,6.75 -59.708,9.458 -92.625,14.458c6.375,-33.917 34.25,-45.666 53.125,-63.875c82.959,-80.208 153.916,-168.791 187.167,-281.125c61.833,-208.791 24.75,-402.958 -104.208,-575.708c-139.501,-186.917 -330.334,-284.375 -564.084,-291.167c-279.333,-8.083 -500.592,103.792 -662.967,331.083c-25.775,36.084 -47.525,75 -72.2,111.918c-6.1,9.124 -9.162,26.083 -29.854,19.374c0.921,-11.375 0.354,-22.541 2.884,-32.958c43.395,-178.75 143.179,-316.792 299.954,-413.208c131.058,-80.584 274.183,-117.792 427.516,-119.917c253.125,-3.5 466.334,88.125 639.417,271.125c194.583,205.75 267.583,549.5 124.459,828.958c-11.418,22.208 -23.042,44.334 -33.751,66.875c-10.666,22.583 -7.292,31.417 13.709,37.209c72.041,19.916 144.166,39.499 217.333,59.5c1.667,-8.709 5.375,-16.958 4.458,-24.625c-12.5,-104.751 -27.083,-209.25 -38.249,-314.084c-17.917,-168.374 -39.042,-336.458 -43.834,-506.041c-3.25,-113.792 -10.125,-227.5 -12.458,-341.334c-2.667,-129.791 -46.875,-243.541 -122.875,-347.249c-247.417,-337.75 -762.25,-512.168 -1219.27,-220.668c-102.821,65.584 -181.617,153.959 -237.546,262.625c-15.658,30.417 -23.037,59.334 -13.025,95.293c15.583,55.958 23.958,113.958 34.3,171.291c4.692,26.042 10.121,52.583 -0.233,91.291c-14.25,-22.208 -22.746,-35.458 -31.254,-48.708c-29.992,-46.667 -57.138,-95.5 -90.43,-139.708c-238.541,-316.666 -561.32,-434.75 -945.729,-379.416c-267.912,38.541 -480.616,182.166 -639.479,400.374c-132.779,182.375 -188.754,386.875 -157.863,613c44.634,326.751 274.034,591.167 590.888,685.417c55.4,16.458 97.029,18.667 125,-38.834c114.029,-127.499 253.875,-174.458 420.45,-131.124c74.146,19.291 136.958,59.958 188.292,117.291c44.508,49.709 84.908,101.709 89.95,171.959l-4.65,-1.709l3.441,3.5Zm10965.5,-599.833c-22.541,13.416 -36.75,-3.792 -51.209,-15.292c-71.875,-57.125 -147.332,-109 -226.666,-155.125c-344.625,-200.583 -736.25,-153.958 -1023.67,68.834c-64.126,49.708 -119.418,107.916 -161.667,177.791c-32.042,52.917 -54.125,109.583 -60.584,171.25c-11.792,111.834 24.5,207.625 99.542,289.917c54.834,60.167 120.709,106.167 189.625,148.334c10.5,6.416 26.542,9.249 20.25,31.124c-21.375,-3.166 -43.084,-6 -64.625,-9.583c-157.208,-26.292 -228.292,-94.75 -259.958,-250.125c-1.083,-5.458 -1.375,-11.041 -2.542,-16.458c-12.125,-57.334 -14.792,-115.459 -16.708,-173.875c-7.167,-220.167 23.624,-437.875 41.249,-656.375c10.334,-127.751 9.5,-255.292 2.918,-382.917c-2.918,-57.042 -10.375,-113.875 -15.792,-170.792c-9.542,55.709 -11.292,111 -10.959,166.334c2.209,373.083 -35,743.125 -88.667,1111.62c-39.166,269.125 -91.166,536.125 -149.124,801.833c-7.375,33.958 -4.001,72.417 -30.208,101.167c-33.043,-24.709 -34.709,-65.084 -47.292,-99.167c-291.792,-788.667 -742.834,-1468.46 -1379.63,-2021.5c-109.208,-94.834 -223.082,-183.417 -351.374,-251.708c-14.583,-7.751 -28.667,-17.917 -51.667,-6.209c-0.333,38.584 -0.125,79.875 -1.167,121.208c-3.249,127.334 20.958,101.918 -101.083,159.334c-123,57.875 -248.25,111 -372.25,166.708c-35.166,15.834 -37.667,22.5 -25,57.209c29.417,80.791 61.417,160.708 88.542,242.25c91.666,275.375 147.916,557.583 157.874,848.291c8.043,234.417 -15.374,466.083 -67.833,694.375c-57.375,249.584 -138.458,491.209 -254.374,720.292c-8.459,16.708 -23.751,30.958 -16.917,66.583c8.125,6.542 25.333,20.584 42.666,34.459c25.75,20.666 43.333,57.375 76.292,61.333c28.209,3.375 58.541,-13.084 88.208,-19.625c119.959,-26.625 240.834,-47.333 362.167,-12.5c37.125,10.667 55.417,-1.083 76.458,-28.25c54.459,-70.417 114.042,-136.75 183.209,-193.083c320,-260.459 674.541,-321.875 1061.17,-176.084c188.75,71.208 342.792,192.084 466.708,351.417c14.667,18.875 24.875,43 52.626,53.5c94.625,-80.042 195.875,-145.375 320.5,-167.792c127.041,-22.875 247.499,3 369.666,46.125c9.375,-30.583 17,-56.958 25.501,-83.041c37.291,-114.25 100.624,-210.209 201.041,-278.375c160.833,-109.25 333.417,-128.084 515.792,-62.626c22.25,7.959 42.417,22.875 67.041,24.042c5.958,-25.291 -6.166,-41.541 -12.625,-59.083c-17.458,-47.292 -26.458,-96.25 -28.666,-146.5c-7.709,-176.125 91.875,-346.666 251.583,-417.333c167.334,-74.042 324.584,-57.792 463.75,69.25c11.291,10.292 19.541,27.666 43.917,22.375c15.083,-26.334 30.708,-55.375 48.042,-83.376c72.874,-117.624 225.916,-184.375 360.749,-147.499c67.084,18.333 120.751,55.666 163.792,108.458c20,24.542 41.958,32.042 72.459,27.541c113.208,-16.791 222.916,-45.25 326.708,-94.083c139.833,-65.75 248.458,-165.708 326.375,-299.25c101.125,-173.208 128.541,-359.833 93.291,-554.666c-30.375,-167.834 -104.208,-317.584 -227.541,-436.417c-167.084,-161 -366.125,-257.709 -601,-273.875c-245.501,-16.917 -467.292,46.167 -664.459,193.583c-133.666,99.959 -232.416,229.875 -314.833,373.083c-19.292,33.501 -44.5,67.834 -49.417,104.125c-5.166,38.167 33.125,67.584 50.501,101.792c4.999,9.875 11.458,19.001 17.291,28.458l2,-1.416Zm-7631.38,2270.62l-0.792,3.666c64.542,-48.958 135.542,-86.208 209.5,-118.75c75.126,-33.083 156.209,-48.041 232.625,-73.624c-1.083,-8.126 -0.5,-11.542 -1.916,-13.417c-117.209,-153.792 -267.792,-256.375 -459.375,-292.333c-81.959,-15.417 -164.75,-17.625 -248.709,-7.5c-221.958,26.708 -407.791,120.375 -555.374,288.708c-55.167,62.917 -100.667,132.417 -139.709,206.417c-49.875,94.625 -84.167,193.125 -81.625,301.958c0.75,33.083 -0.875,66.375 -22.458,101.209c-18.75,-40.209 -21.5,-78.001 -22.084,-115.751c-0.791,-52.75 -0.833,-105.542 0.667,-158.291c0.708,-25.417 -8.792,-41.501 -31.083,-53.042c-196.959,-102.042 -403.75,-143.208 -620.333,-82.417c-294.417,82.584 -492.459,269.167 -579.167,566.209c-13.959,47.791 -23.125,97.083 -27.083,147.208c-1.792,22.958 -2.043,48.292 -22.709,69.625c-17.254,-12.208 -30.583,-21.75 -44,-31.208c-13.583,-9.584 -27.083,-19.376 -40.917,-28.667c-214.979,-144.25 -445.304,-178.542 -690.087,-91.042c-402.538,143.834 -588.334,532.167 -515.404,873.834c54.362,254.666 200.7,434.041 443.054,533.708c32.958,13.542 63.546,12.75 97.121,4.417c53.762,-13.375 108.075,-25.334 162.762,-34.084c188.334,-30.125 364.746,-0.5 524.429,109c15.167,10.417 28.459,26.792 52.538,21.959c13.546,-38.417 25.921,-78.167 41.504,-116.584c48.375,-119.083 123.292,-216.291 235.5,-282.708c60.5,-35.792 126,-57.417 193.917,-72.958c16.208,-3.709 32.958,-5.167 49.083,-9.25c17.167,-4.334 29.916,-13.959 30.958,-33.875c0.583,-11.084 1.583,-22.167 2.709,-33.209c33.708,-323.125 206.708,-539.791 511.083,-644.166c216.125,-74.084 421.833,-41.584 604.542,103.166c12.916,10.25 24.292,23.084 41.833,25.917c2.25,-1.542 5.042,-2.666 6.625,-4.709c10.209,-13.124 20.292,-26.291 30.083,-39.708c242.167,-331.541 570.792,-500.75 978.708,-519.041c66.501,-2.959 133.251,1.208 199.918,2.041c44.374,0.5 47.875,0.084 58.291,-41.583c47.333,-189.25 156.292,-334.708 313.083,-447.292c14.875,-10.708 34.792,-18.041 39.709,-42.999c-78,-30.584 -160.209,-43.542 -242.709,-50.584c-218,-18.667 -432.541,1.5 -641.666,68.458c-24.042,7.708 -47.417,15.834 -73.042,11.292Zm9799.67,411.375l1.208,-1.167c-14.916,-18.5 -7.416,-35.833 1.792,-53.875c64.083,-125.542 158,-220.083 287.458,-277.875c20.25,-9.041 40.834,-17.291 61.375,-25.708c15.083,-6.208 20.667,-18 18.041,-33.083c-20.583,-119.084 -54.416,-233.667 -137.458,-325.25c-132.083,-145.625 -294.375,-212.084 -492.708,-178.375c-78.084,13.25 -147.292,47.625 -216.5,83.083c-30.125,15.417 -36.542,13.5 -50.541,-16.917c-32.709,-70.875 -70.293,-138.583 -122.625,-197.125c-276.292,-309.041 -712.5,-292.625 -979.501,-83.5c-86.249,67.584 -149.874,153.626 -195,257.833c33.417,9.209 62.208,17.126 91.001,25.042c223.666,61.625 352.25,297.459 296.75,532.625c-16.876,71.625 -53.459,133.376 -93.792,193.625c-19.792,29.584 -20.5,31.792 2.458,57.625c65.208,73.375 101.875,157.792 105.917,256.167c0.292,7.75 1.624,18.5 12.375,18.042c7.333,-0.292 15.416,-4.583 21.458,-9.292c10.959,-8.458 20.292,-18.917 30.875,-27.917c149.625,-127.625 342.166,-102.833 461.875,30.5c29.5,32.876 53.333,70.792 79.333,106.709c19.875,27.416 25.209,30.416 54.667,22.375c26.75,-7.292 52.792,-17.167 79.708,-23.751c85.083,-20.791 189.167,17.209 222.75,114.501c6.333,18.333 13.792,36.291 21.376,54.167c16.957,39.999 41.249,70.291 87.625,80.832c29.25,6.668 57.333,20.875 84.416,34.667c83.625,42.709 141.584,117.167 130.667,247.917c-4.209,50 -18.417,97.792 -38.292,144.167c-5.709,13.375 -20.416,27.666 -6.292,46.583c7.125,-1.208 15.167,-1.5 22.5,-3.917c78,-25.833 144.626,-69.083 200.459,-129.666c20.75,-22.542 25.499,-21.834 49.499,-7.125c40.209,24.625 79.043,51.708 120.584,73.833c104.625,55.75 216.75,86.792 335.583,83.208c173.293,-5.208 325.167,-66.833 450.293,-187.958c195.917,-189.625 252.415,-419.083 179.124,-678.417c-89.541,-316.958 -448.625,-545.958 -801.458,-457.916c-154.876,38.625 -284.542,121.208 -377,255.333Zm-3704.58,-3882.5c20.667,9.25 33.334,-5.417 46.959,-13c247.499,-137.708 511.625,-173.125 789.625,-134.25c338.333,47.333 620.625,198.292 850.541,449.584c13.042,14.249 27.042,27.666 40.834,41.249c1.833,1.792 4.999,2.25 10.833,4.708c12.167,-7.208 26.25,-15.458 40.208,-23.833c405.292,-243.333 820.708,-254.541 1237.38,-38.499c353.626,183.374 569.417,481.833 659.167,866.791c92.542,396.959 30.5,771.75 -190,1117.83c-74.875,117.458 -161,226.082 -252.167,330.999c-18.083,20.792 -40.208,38.625 -52.333,69.125c16.5,26.125 34.583,53.959 51.75,82.334c13.833,22.875 33.292,27.083 57.209,19.875c53.125,-16.042 106.416,-30.376 161.999,-37.042c310.334,-37.208 624.75,136 759,419.25c27.46,57.958 47.792,118.458 62.126,180.708c8.707,37.876 5.833,49.667 59.291,52.917c75.287,4.625 148.875,19.542 219.959,43.667c363.792,123.5 596.708,375.458 707.708,739.125c129.792,425.25 -11.167,889.916 -302.126,1185.92c-221.291,225.084 -489.921,339.459 -803.958,348.5c-94.875,2.75 -78.041,0.375 -103.083,75.5c-51.292,154 -153.5,260.459 -296.583,332.292c-36.417,18.292 -86.834,21.917 -105.584,59.208c-17.124,34.042 6.876,75.584 11.084,114c35.292,322.959 -201.792,557.875 -469.125,597.792c-75,11.208 -149.625,1.917 -223.417,-13.708c-13.542,-2.834 -26.75,-7.375 -40.292,-10.334c-15.083,-3.333 -27.333,0.125 -32.166,16.834c-6.209,21.333 -11.375,42.958 -18.542,63.958c-89.666,262.796 -254.875,451.958 -525.958,536.833c-136.583,42.75 -274.209,33.292 -411.792,4.792c-29.292,-6.083 -58.5,-12.542 -84.875,-18.208c-16.25,19.166 -11.5,36.458 -10.958,52.625c3,93.041 -13.667,182.291 -49.667,268.083c-4.25,10.208 -9.125,20.333 -11.833,30.958c-3.084,12.167 2,21.375 15.083,23.709c8.125,1.5 16.542,1.666 24.875,1.958c141.542,5.042 283.125,9.167 424.625,15.083c255.25,10.709 510.375,24 765.042,44.959c163.25,13.416 326.75,24.333 489.791,40.083c204.417,19.708 409.709,31.375 612.709,64.917c27.333,4.5 54.667,7.625 83.583,23.625c-19.292,15.458 -40.833,13.291 -59.875,17.166c-18.958,3.834 -38.5,5.042 -57.875,6.709c-229.833,19.666 -460.333,26.458 -690.75,31.041c-444.291,8.834 -888.667,15.334 -1333.08,19.542c-333.292,3.125 -666.625,1.042 -999.917,1.542c-32.333,0.041 -64.625,2.041 -97.666,8.291c70.374,34.042 147.458,42.209 220.75,63.292c74.624,21.458 149.666,41.625 224.541,62.292c74.875,20.625 149.833,40.916 224.666,61.75c74.292,20.708 148.459,41.875 219.959,62.083c1.25,9.458 2.584,12.583 1.667,14.833c-0.709,1.792 -4.167,3.542 -6.333,3.5c-819.209,-24.458 -1638.58,-4.041 -2457.83,-9.625c-2.541,0 -5.125,2 -13.875,5.584c25,16.791 51.042,20 74.959,25.541c275.791,64.042 547.708,142.167 819.166,222.209c53.208,15.708 106.041,32.666 158.834,49.708c17.999,5.792 35.375,13.583 56.375,21.75c-28.292,23.833 -57.168,20.125 -84.001,22.125c-315.708,23.375 -631.708,41.667 -948,56.083c-321.875,14.667 -643.875,23.959 -965.833,34.542c-533.042,17.5 -1066.21,27 -1599.46,33.792c-452.75,5.75 -905.459,11.083 -1358.21,4.166c-458.249,-6.958 -916.458,-14.333 -1374.42,-32.791c-213.667,-8.625 -427.417,-16.417 -640.959,-27.709c-244,-12.916 -487.833,-28.875 -731.708,-44.25c-199.542,-12.583 -399.042,-26.041 -598.5,-39.583c-83.041,-5.667 -166.042,-12.583 -255.208,-19.417c12.166,-20.083 29.75,-21.875 46.333,-25.5c387.583,-84.5 775.167,-169.041 1162.75,-253.625c18.583,-4.083 37.458,-7.875 52.542,-20.958c-0,-2.708 0.958,-6.125 -0.251,-7.417c-1.707,-1.75 -4.999,-2.5 -7.708,-2.666c-11.083,-0.667 -22.166,-1.375 -33.25,-1.375c-108.333,0.041 -216.666,-1.125 -325,0.583c-666.625,10.708 -1333.25,-6.042 -1999.87,1.083c-66.629,0.709 -133.3,-2.125 -199.954,-3.416c-11.1,-0.25 -22.196,-1 -33.271,-1.792c-2.696,-0.208 -5.313,-1.5 -8.78,-2.542c2.101,-22.5 21.442,-20.833 35.334,-23.041c183.666,-29.167 366.079,-64.959 547.921,-103.625c132.958,-28.25 265.45,-58.792 395.533,-98.667c10.209,-3.125 19.875,-8.167 29.5,-12.958c1.417,-0.709 1.833,-4.75 1.583,-7.125c-0.25,-2.334 -1.833,-6.375 -3.083,-6.5c-27.583,-2.084 -55.171,-5 -82.796,-5.25c-419.425,-3.709 -838.854,-5.959 -1258.25,-10.834c-349.946,-4.083 -699.908,-9.166 -1049.77,-17.625c-233.183,-5.625 -466.237,-17.25 -699.283,-27.666c-99.554,-4.459 -198.596,-17.375 -297.988,-15.875c-0.787,-19.459 7.821,-25.459 19.654,-26.792c157.213,-17.875 314.296,-37.083 471.73,-52.708c174.045,-17.292 348.387,-31.542 522.654,-46.5c157.679,-13.5 315.471,-25.709 473.142,-39.334c160.433,-13.833 320.758,-28.958 481.17,-43.083c149.355,-13.125 298.759,-25.708 448.146,-38.417c19.363,-1.666 38.838,-2.25 58.138,-4.416c20.541,-2.292 25.508,-14.959 14.691,-35.209c-1.308,-2.458 -2.762,-4.791 -4.27,-7.125c-50.246,-77.666 -85.055,-161.75 -107.8,-251.375c-9.28,-36.541 -17.213,-40.791 -53.317,-31.791c-118.029,29.333 -237.104,34.166 -354.683,4.083c-271.484,-69.417 -440.559,-245 -517.655,-512.167c-5.383,-18.666 -9.916,-37.583 -14.458,-56.458c-5.108,-21.208 -19.317,-24.75 -37.787,-19.792c-69.955,18.75 -140.513,30.959 -213.53,30.213c-244.05,-2.546 -457.795,-166.046 -523.166,-401.629c-23.546,-84.834 -20.121,-170.375 -6.205,-255.959c4.888,-30 13.934,-59.375 21.13,-89.041c4.783,-19.667 -2.554,-31.584 -22.25,-36.917c-18.73,-5.042 -37.309,-10.792 -55.696,-17.042c-130.658,-44.166 -235.146,-122.791 -312.567,-237.291c-43.875,-64.875 -75.491,-135.667 -102.246,-208.834c-28.62,-78.291 -11.154,-75.5 -101.312,-78.916c-102.838,-3.917 -204.834,-16 -303.154,-49c-360.25,-121.084 -606.442,-361.792 -738.13,-716.334c-157.729,-424.708 -47.554,-915.625 274.817,-1231.12c139.371,-136.375 307.642,-215.791 494.642,-260.25c43.146,-10.249 86.983,-17.875 130.771,-25.083c27.7,-4.542 44.795,-16.916 50.604,-45.917c6.525,-32.583 14.504,-65.083 24.804,-96.666c88.725,-272.167 261.079,-466.834 531.408,-569.5c86.538,-32.876 176.584,-47.875 269.13,-47.042c30.541,0.25 61.062,2.084 91.599,3.042c18.034,0.541 31.621,-5.083 39.238,-23.584c30.708,-74.708 68.371,-145.75 115.925,-211.249c14.108,-19.417 10.092,-34.917 -5.854,-50.792c-15.733,-15.667 -30.408,-32.417 -45.129,-49.042c-152.088,-171.875 -283.292,-357.375 -356.134,-577.375c-168.045,-507.542 -100.983,-982.792 219.038,-1412.25c205.404,-275.667 486.025,-444.208 825.158,-506.791c297.038,-54.793 580.208,-8.167 846.634,135.249c63.824,34.375 55.529,40.542 111.562,-15.042c204.717,-203.041 452.158,-321.875 736.608,-354.208c338.542,-38.5 643.792,49.042 907.209,270.584c29.375,24.666 52.083,57.75 89.25,72.875c36.625,-32.333 20.542,-77.417 26.083,-116.334c67.375,-473.917 174.708,-938.041 335.875,-1389.21c251.875,-705.208 616.625,-1345.92 1096.92,-1920.79c121.124,-145 242,-290.167 381.166,-418.583c24.667,-22.791 34.834,-46.292 34.792,-79.625c-0.084,-147.208 -0.792,-294.5 4.125,-441.583c7.417,-222.042 15.125,-444.208 30.458,-665.792c19.584,-282.459 49.875,-563.958 92.25,-844.229c61.083,-403.979 147.25,-802.134 264,-1193.63c171.167,-573.817 403.875,-1122.03 685.792,-1649.86c143.958,-269.529 302.829,-530.333 460,-792.155c82.875,-138.053 165.916,-275.999 249,-413.924c10,-16.612 19.958,-33.38 31.416,-48.963c8.125,-11.029 20.709,-9.354 28.417,-0.305c16.126,18.956 31.958,38.581 45.001,59.721c284.5,460.543 572.083,919.131 825.041,1398.4c286.584,542.917 497.875,1113.78 647.084,1708.38c88.541,352.908 156,709.846 204.833,1070.45c36.124,267 63.249,534.75 82.041,803.5c22.167,316.041 32.834,632.334 32.375,949.042c0,11.125 1.501,22.416 0.084,33.333c-4.75,36.958 12.208,62.667 38.333,86.833c85.708,79.25 165.75,164.126 243.541,251.125c443.001,495.209 784.751,1054.29 1048.33,1662.54c208.375,480.875 355.167,980.375 447.458,1495.83c36.209,202.292 65.167,405.751 70.167,611.75c0.167,7.667 3.667,15.208 5.333,21.792Z" style="fill:#231f20;fill-rule:nonzero;"/><path d="M13927.8,6664.88c-0.791,-71.375 16.583,-141.583 25.334,-212.458c6.749,-54.959 16.291,-109.875 29.625,-163.583c7.583,-30.542 1.75,-52.959 -16.25,-76.834c-63.417,-84.209 -126,-169.041 -188.25,-254.125c-16.126,-22.041 -37.542,-41.208 -43.376,-70.125c23.668,-19.917 52.667,-14.833 79.626,-17.875c99.208,-11.166 198.375,-23.042 297.749,-32.208c31.084,-2.875 48.834,-17.167 65.334,-42.167c67.333,-101.75 136.458,-202.375 205.5,-303c10.667,-15.542 18.917,-34.125 38.917,-41.792c24.25,6.5 33.041,28.751 43.792,47.125c43.291,74.251 84.874,149.459 127.25,224.209c23.207,40.958 40.041,88.375 71.958,120.791c33,33.459 87.791,29.376 132.916,42.042c88.042,24.75 176.708,47.25 264.834,71.542c26.125,7.208 29.499,21.499 8.666,40.625c-75.541,69.5 -151.958,138.041 -228.167,206.791c-12.375,11.167 -24.624,22.75 -38.333,32.001c-33.583,22.708 -42.708,54.166 -40.792,93.124c4.209,85.917 6.001,171.959 8.626,257.917c0.833,27.75 2.083,55.5 1.667,83.209c-0.459,29.999 -13.75,39.625 -42.834,27.708c-51.25,-20.959 -102.041,-43.375 -151.834,-67.667c-54.791,-26.791 -109.208,-54.666 -161.916,-85.25c-31.667,-18.375 -60.75,-19.625 -94.334,-7.292c-109.208,40.208 -219.082,78.75 -328.708,117.959c-20.083,7.208 -39.333,19.583 -67,9.333Z" style="fill:#231f20;fill-rule:nonzero;"/><path d="M3382.01,7024.21c22.788,-23.875 51.788,-27.209 77.363,-36.459c49.462,-17.875 99.896,-33.333 150.529,-47.666c96.754,-27.375 75.367,-22.042 111.042,-95.793c22.879,-47.291 38.996,-97.833 60.433,-145.874c12.088,-27.083 16.333,-58.542 39.654,-80.001c23.521,1.042 33.775,19.251 44.588,34.459c32.095,45.208 62.795,91.375 93.845,137.291c9.313,13.792 18.871,27.501 26.759,42.126c16.258,30.083 39.687,40.75 74.633,40.583c74.8,-0.375 149.646,4.208 224.438,7.333c13.25,0.542 27.625,-0.5 38.166,11.083c6.209,19.042 -7.958,31.375 -16.583,44.543c-33.375,51.083 -67.708,101.541 -102.167,151.875c-44.725,65.333 -45.42,65.333 -26.625,144.249c12.167,51.209 26.167,101.958 39.084,153c6.75,26.542 12.875,53.25 18.75,77.834c-18.5,19.583 -34.292,5.791 -47.834,0.541c-67.162,-26.083 -134.316,-51.624 -203.904,-71.166c-43.762,-12.251 -79.321,-6.542 -116.792,20.083c-67.762,48.125 -138.549,92.042 -208.479,137.125c-18.846,12.125 -31.675,4.958 -32.02,-17.584c-1.159,-74.875 -3.709,-149.833 -1.517,-224.666c1.337,-45.5 -12.738,-80.208 -47.459,-109c-51.195,-42.5 -101.112,-86.5 -151.549,-129.875c-14.484,-12.459 -33.559,-20.041 -44.355,-44.041Z" style="fill:#231f20;fill-rule:nonzero;"/><path d="M15822,8443.29c-44.458,30.417 -82.25,58.375 -122.041,83.001c-41.417,25.541 -66.001,57.958 -58.084,108.833c0.417,2.709 0.084,5.583 0,8.333c-3.874,120.417 -10.416,124.334 -113.541,68.917c-31.584,-16.959 -61.917,-42.291 -95.5,-47.958c-35.625,-6 -63.625,29.5 -96.5,43.666c-17.792,7.709 -35.417,16.126 -53.875,21.792c-23.292,7.166 -44.5,-5.666 -50.75,-30c-9.084,-35.292 -10.042,-71.625 -7.042,-107.584c2.792,-33.791 -8.375,-56.666 -36.125,-77.666c-38.458,-29.125 -86.458,-48.875 -107.459,-97.458c30.668,-38.167 76.751,-53.333 117.417,-75.417c34.625,-18.833 45.334,-43.292 44.584,-80.167c-1,-46.541 -2.876,-93.541 5.041,-137.958c20.667,-9.208 36,-2.458 51,4.959c34.833,17.166 71.126,32.041 103.708,52.749c36.876,23.417 69.084,25 107.918,3.167c40.541,-22.833 81.916,-46.125 126.916,-56.958c19.042,12 15.625,29.833 16.5,45.999c2.125,38.792 5.459,77.626 5.167,116.418c-0.251,35.208 16.083,55.833 45.958,71.708c38.917,20.666 77.833,42.083 116.708,81.624Z" style="fill:#231f20;fill-rule:nonzero;"/><path d="M5361.75,5203.71c68.667,-14.041 125.333,-27.374 182.625,-36.833c42.334,-7 69.708,-26.584 86.084,-67.5c15.416,-38.417 37.374,-74.292 57.041,-111c27.542,-51.416 37.25,-51.958 71,-0.833c18.292,27.708 38.458,55.874 48.708,86.875c20.417,61.624 64.667,83.624 123.625,93.291c48.917,8.042 96.709,22.917 142.625,34.167c5.75,24.875 -8.666,36.042 -19.666,47.584c-30.625,32.208 -61.75,63.958 -93.834,94.666c-19.791,18.916 -26.958,40.083 -23.916,67.25c6.458,57.875 11.25,116 16.333,174.042c1.292,14.708 -9.917,21.624 -20.708,17.833c-44.458,-15.625 -89.375,-30.792 -131.667,-51.25c-46.584,-22.541 -88.625,-21.25 -134.208,2.791c-41.583,21.959 -86.125,38.376 -129.667,56.417c-15.875,6.542 -27.417,-1.666 -26.583,-19.166c2.083,-41.583 2.875,-83.458 8.833,-124.542c15.5,-106.625 10.875,-85.292 -54.083,-150.375c-33.042,-33.084 -67.042,-65.417 -102.542,-113.417Z" style="fill:#231f20;fill-rule:nonzero;"/><path d="M12706.2,5450.46c-33.667,-15.209 -64,-28.125 -93.666,-42.543c-27,-13.166 -52.125,-15.5 -78.084,3.167c-15.666,11.333 -33.25,20.042 -50.375,29.167c-11.833,6.291 -24.083,19.334 -37.708,11.416c-18.958,-10.999 -8.125,-30.208 -5,-44.833c14.209,-66.333 9.917,-125.958 -50.667,-170.041c-8.458,-6.125 -14.125,-16.959 -19.208,-26.626c-4.416,-8.416 0.041,-17.541 8.625,-19.207c29.833,-5.876 59.959,-10.709 90.125,-14.625c27.333,-3.584 45.333,-17.959 56.708,-42.625c6.958,-15.084 15.042,-29.709 23.376,-44.126c24.833,-42.875 37.124,-43.625 62.249,-4.291c3,4.708 7.334,9.041 8.667,14.167c18.875,72.499 68.292,93.957 137.625,83.833c7.541,-1.125 15.833,2.916 26.583,5.166c-0.624,31.917 -24.749,49.542 -42.916,67.917c-33.917,34.333 -51.251,69.667 -35.042,119.042c6.459,19.792 11,43.124 -1.292,75.042Z" style="fill:#231f20;fill-rule:nonzero;"/><path d="M13007,7186.38c26.083,32.25 41.292,55.375 60.834,73.958c16.833,16.001 52.833,9.584 58.125,38.459c4.166,23.083 -24.959,35.042 -31.459,55.958c-3.958,12.792 -5.125,26.917 -4.916,40.375c0.292,16.208 7.916,32.375 -1.209,49.875c-7.292,-0.333 -15.958,1.25 -23,-1.417c-44.166,-16.833 -87.5,-32.458 -132.541,-0.75c-9.542,6.75 -20.375,-1.333 -26.001,-12.583c-9.041,-18.042 -7.582,-37.542 -8.708,-56.709c-0.791,-13.707 -3.125,-26.166 -11.791,-38.416c-34.042,-48.125 -34.292,-51.875 16.416,-63.916c46.542,-11.043 74.917,-42.459 104.25,-84.834Z" style="fill:#231f20;fill-rule:nonzero;"/><path d="M10026,14899.3c4.583,4.375 4.874,9.25 -0.251,13.166c-5.041,3.834 -9.249,1.75 -8.916,-4.708c0.333,-6.125 4.917,-8.417 11.083,-6.958c-0.042,-0 -1.916,-1.5 -1.916,-1.5Z" style="fill:#231f20;fill-rule:nonzero;"/><path d="M8683.54,14177.5c-0.546,3.709 -1.125,7.417 -1.713,11.167c0.713,-4.083 1.421,-8.166 2.379,-12.5c0.25,-0.292 -0.666,1.333 -0.666,1.333Z" style="fill:#231f20;fill-rule:nonzero;"/><path d="M8250.83,14893.3l4.917,-1.625c0,-0 -4,2.666 -3.875,2.791c0.083,0.084 -1.042,-1.166 -1.042,-1.166Z" style="fill:#231f20;fill-rule:nonzero;"/><path d="M14366.6,11362.3c-0.083,11.084 8.5,1.209 -0.417,7.667c-2.917,2.084 -4.208,-3.375 2.042,-8.875c0.375,-0.208 -1.625,1.208 -1.625,1.208Z" style="fill:#231f20;fill-rule:nonzero;"/><path d="M6737.25,13631.5c5.542,9.625 -8.125,5.875 2.708,4.208c3.209,-0.5 1.458,-4.875 -3.458,-0.708c-0.042,0.166 0.75,-3.5 0.75,-3.5Z" style="fill:#231f20;fill-rule:nonzero;"/><path d="M16536.9,14042.9l-3.375,-2.833c-0,-0 4.458,1.666 4.541,1.666c0.042,0 -1.166,1.167 -1.166,1.167Z" style="fill:#231f20;fill-rule:nonzero;"/><path d="M9200.17,3733.86c367.75,11.017 652.583,255.946 695.625,618.305c28,235.583 -40.333,438.583 -213.208,603.958c-42.459,40.583 -89.542,75 -142.334,100.542c-181.084,87.458 -368.958,113.458 -566.333,64.791c-196.126,-48.375 -334.917,-166.458 -427.625,-342.583c-197.25,-374.667 -15.084,-875.346 437.624,-1008.55c47.751,-14.049 97.292,-22.488 146.417,-31.062c27.167,-4.747 55.25,-4.379 69.834,-5.405Z" style="fill:#231f20;fill-rule:nonzero;"/><path d="M12425.6,11561.5c-18.75,-12.249 -24.5,-31.5 -34.167,-48c-283.5,-482.458 -627.541,-915 -1054.75,-1278.92c-148.167,-126.209 -304.251,-241.834 -470.001,-343.834c-37.208,-22.916 -55.583,-47.833 -53.458,-93.083c3.958,-85.875 -1.375,-171.834 8.917,-257.833c8.749,-72.833 28.333,-140.959 62.208,-205.667c47.833,-91.333 88.417,-186.125 104,-288.417c12.042,-79.417 18.5,-160.041 21.541,-240.375c15.543,-410.541 28.751,-821.208 43.709,-1231.79c5.833,-161.124 0.25,-321.999 -3.708,-482.999c-2.875,-116.542 -2.708,-233.209 -3.501,-349.792c-0.124,-16.541 0.501,-33.417 3.626,-49.584c1.583,-8.041 12.249,-12.999 19.625,-7.083c21.541,17.251 43.208,34.709 62.333,54.5c63.792,65.959 121.417,137.167 175.292,211.417c145.333,200.25 272.875,411.667 392.708,627.833c281.167,507.292 497.084,1040.5 634.75,1604.58c56.625,231.958 98.542,466.5 128.708,703.458c45.376,356.292 56.125,713.875 44.084,1072.21c-6.417,191.375 -24.501,382.167 -63.625,570.251c-2.167,10.374 -1.125,22.208 -18.292,33.124Z" style="fill:#231f20;fill-rule:nonzero;"/></g></svg>